<svg xmlns="http://www.w3.org/2000/svg" xmlns:xlink="http://www.w3.org/1999/xlink" version="1.1" x="0px" y="0px" viewBox="0 0 91 113.75" enable-background="new 0 0 91 91" xml:space="preserve"><g><path d="M85.552,88.693V75.129C89.07,71.293,91,66.35,91,61.113c0-11.445-9.308-20.756-20.753-20.756   c-11.443,0-20.75,9.311-20.75,20.756c0,0.102,0.002,0.207,0.004,0.311l-5.729,9.92c-0.377,0.652-0.377,1.455,0,2.105   c0.375,0.65,1.069,1.051,1.821,1.051h2.224v5.26c0,3.934,3.203,7.133,7.137,7.133h5.852v1.801c0,1.162,0.943,2.105,2.105,2.105   s2.104-0.943,2.104-2.105v-1.803h2.359c1.162,0,2.105-0.941,2.105-2.105c0-1.162-0.943-2.104-2.105-2.104h-5.352   c-0.004,0-0.004,0.002-0.008,0.002h-7.061c-1.615,0-2.928-1.311-2.928-2.924v-7.363c0-1.162-0.941-2.105-2.104-2.105h-0.684   l4.205-7.281c0.193-0.338,0.291-0.723,0.279-1.113l-0.008-0.225c-0.006-0.188-0.012-0.371-0.012-0.559   c0-9.125,7.42-16.547,16.543-16.547s16.546,7.422,16.546,16.547c0,4.355-1.681,8.453-4.724,11.563l-2.873,1.93   c-0.963,0.648-1.219,1.955-0.57,2.92c0.406,0.604,1.07,0.93,1.746,0.93c0.334,0,0.66-0.098,0.971-0.26v10.498   c0,1.162,0.941,2.105,2.104,2.105S85.552,89.855,85.552,88.693z"/><path d="M4.933,71.895c0,1.162,0.942,2.104,2.104,2.104c1.162,0,2.104-0.941,2.104-2.104v-8.846   c0.196,0.059,0.398,0.088,0.599,0.088c0.678,0,1.343-0.328,1.749-0.93c0.647-0.967,0.391-2.273-0.573-2.922l-2.501-1.68   c-2.622-2.689-4.07-6.225-4.07-9.98c0-7.887,6.418-14.305,14.306-14.305c7.887,0,14.302,6.418,14.302,14.305l-0.017,0.688   c-0.01,0.387,0.088,0.771,0.281,1.107l3.48,6.031h-0.164c-1.162,0-2.104,0.941-2.104,2.104v6.477c0,1.281-1.041,2.322-2.321,2.322   h-6.211c-0.003,0-0.007,0-0.01,0h-4.709c-1.161,0-2.104,0.941-2.104,2.105c0,1.162,0.942,2.104,2.104,2.104h1.822v1.332   c0,1.162,0.942,2.104,2.104,2.104c1.163,0,2.104-0.941,2.104-2.104v-1.332h4.899c3.601,0,6.529-2.93,6.529-6.531v-4.373h1.705   c0.752,0,1.446-0.4,1.821-1.051c0.376-0.65,0.376-1.453,0-2.105l-5.003-8.67c0-0.068,0.001-0.137,0.001-0.207   c0-10.207-8.304-18.512-18.511-18.512c-10.208,0-18.515,8.305-18.515,18.512c0,4.639,1.698,9.02,4.798,12.432V71.895z"/><path d="M34.232,33.375l7.829-1.283c3.759,2.369,8.39,3.664,13.138,3.664c2.24,0,4.471-0.307,6.645-0.887   c1.115,0.301,2.322,0.564,3.201,0.723l2.426,3.191c0.35,0.459,0.871,0.756,1.445,0.818c0.076,0.01,0.152,0.014,0.229,0.014   c0.494,0,0.977-0.174,1.359-0.496l5.18-4.371C84.34,32.26,90.12,25.58,90.12,17.998c0-9.793-9.687-17.762-21.593-17.762   c-2.25,0-4.488,0.311-6.664,0.895c-2.178-0.584-4.416-0.895-6.664-0.895c-11.909,0-21.597,7.969-21.597,17.762   c0,2.256,0.513,4.451,1.527,6.541l-3.092,5.768c-0.379,0.705-0.324,1.566,0.142,2.217C32.646,33.176,33.441,33.508,34.232,33.375z    M85.912,17.998c0,5.781-4.732,10.93-11.779,12.813c-0.299,0.08-0.578,0.225-0.813,0.426l-3.84,3.238l-1.592-2.096   c-0.006-0.006-0.008-0.01-0.012-0.016c5.494-3.283,8.918-8.596,8.918-14.365c0-5.311-2.9-10.236-7.645-13.545   C78.449,4.709,85.912,10.688,85.912,17.998z M39.336,23.496c-1.012-1.756-1.525-3.607-1.525-5.498   c0-7.475,7.801-13.553,17.389-13.553c2.051,0,4.094,0.293,6.07,0.875c0.002,0,0.002,0,0.002,0   c6.768,1.979,11.314,7.072,11.314,12.678c0,5.604-4.547,10.697-11.314,12.678c-6.049,1.771-12.813,0.73-17.547-2.527   c-0.447-0.307-0.999-0.432-1.532-0.342l-4.429,0.727l1.604-2.992C39.711,24.9,39.699,24.129,39.336,23.496z"/><path d="M62.318,20.104h0.18c1.162,0,2.105-0.943,2.105-2.105c0-1.164-0.943-2.104-2.105-2.104h-0.18   c-1.162,0-2.104,0.939-2.104,2.104C60.215,19.16,61.156,20.104,62.318,20.104z"/><path d="M54.955,20.104h0.178c1.162,0,2.105-0.943,2.105-2.105c0-1.164-0.943-2.104-2.105-2.104h-0.178   c-1.162,0-2.105,0.939-2.105,2.104C52.85,19.16,53.793,20.104,54.955,20.104z"/><path d="M47.59,20.104h0.18c1.162,0,2.104-0.943,2.104-2.105c0-1.164-0.941-2.104-2.104-2.104h-0.18   c-1.162,0-2.105,0.939-2.105,2.104C45.484,19.16,46.428,20.104,47.59,20.104z"/></g><text x="0" y="106" fill="#000000" font-size="5px" font-weight="bold" font-family="'Helvetica Neue', Helvetica, Arial-Unicode, Arial, Sans-serif">Created by BomSymbols</text><text x="0" y="111" fill="#000000" font-size="5px" font-weight="bold" font-family="'Helvetica Neue', Helvetica, Arial-Unicode, Arial, Sans-serif">from the Noun Project</text></svg>