<svg xmlns="http://www.w3.org/2000/svg" xmlns:xlink="http://www.w3.org/1999/xlink" version="1.1" x="0px" y="0px" viewBox="0 0 100 125" enable-background="new 0 0 100 100" xml:space="preserve"><g><g><g><path fill="#000000" d="M17.7,50.6c1.1-20.4,30.6-20.4,31.7,0c0.3,5.8,9.3,5.8,9,0c-0.8-14-10.8-24.1-24.8-24.8     C19.5,25,9.4,37.7,8.7,50.6C8.4,56.3,17.4,56.3,17.7,50.6L17.7,50.6z"/></g></g><g><g><path fill="#000000" d="M35.8,53.7c5.7-5.7,11.4-11.4,17.1-17.1c-1.4,0.2-2.7,0.4-4.1,0.5C61,43.7,73.1,50.3,85.1,56.9     c3.8,2.1,7.2-3.7,3.4-5.8c-12.1-6.6-24.2-13.2-36.3-19.8c-1.3-0.7-3-0.6-4.1,0.5C42.5,37.5,36.8,43.2,31,48.9     C28,52,32.7,56.7,35.8,53.7L35.8,53.7z"/></g></g><g><path fill="#000000" d="M69,48.6h-3.6V33.7c-0.2-6-6.7-11.4-6.8-11.5c-2.2-1.9-2.6-3.8-2.5-5c0.1-1.9,1.3-3.2,2.2-4v-1H50v1    c0.9,0.7,2.1,2.1,2.2,4c0.1,1.2-0.3,3.1-2.5,5c-0.1,0.1-6.6,5.5-6.8,11.5l0,14.8h-3.6V33.7c0.2-7.7,7.8-14,8.1-14.2    c0.6-0.5,1.2-1.2,1.2-1.9c-0.1-0.8-1-1.6-1.4-1.9l-0.8-0.5l0-6.5h15.5v6.5l-0.8,0.5c-0.3,0.2-1.3,1-1.4,1.9c0,0.7,0.6,1.5,1.2,2    c0.3,0.2,7.8,6.5,8.1,14.2V48.6z"/></g></g><path fill="#000000" d="M91.4,47.6H8.6c-2,0-3.6,1.6-3.6,3.6v10.2c0,2,1.6,3.6,3.6,3.6h3.7v1.7l6.1,19.1c0,0,0.6,5.5,5.5,5.5H76  c4.9,0,5.5-5.5,5.5-5.5l6.1-19.1v-1.7h0.1h3.7c2,0,3.6-1.6,3.6-3.6V51.2C95,49.2,93.4,47.6,91.4,47.6z M40,83c0,2.1-1.7,3.7-3.7,3.7  c-2.1,0-3.7-1.7-3.7-3.7V69.2c0-2.1,1.7-3.7,3.7-3.7c2.1,0,3.7,1.7,3.7,3.7V83z M53.9,83c0,2.1-1.7,3.7-3.7,3.7  c-2.1,0-3.7-1.7-3.7-3.7V69.2c0-2.1,1.7-3.7,3.7-3.7c2.1,0,3.7,1.7,3.7,3.7V83z M67.5,82.9c0,2.1-1.7,3.7-3.7,3.7  c-2.1,0-3.7-1.7-3.7-3.7V69.1c0-2.1,1.7-3.7,3.7-3.7c2.1,0,3.7,1.7,3.7,3.7V82.9z"/><g><path fill="#000000" d="M73.8,48.1c0.5-8.4,12.6-8.4,13.1,0c0.1,2.7,4.4,2.7,4.2,0c-0.3-6.1-4.7-10.4-10.7-10.7   c-6.1-0.3-10.4,5.2-10.7,10.7C69.4,50.8,73.6,50.8,73.8,48.1L73.8,48.1z"/></g><text x="0" y="115" fill="#000000" font-size="5px" font-weight="bold" font-family="'Helvetica Neue', Helvetica, Arial-Unicode, Arial, Sans-serif">Created by Cryssac Franson Aldo.E</text><text x="0" y="120" fill="#000000" font-size="5px" font-weight="bold" font-family="'Helvetica Neue', Helvetica, Arial-Unicode, Arial, Sans-serif">from the Noun Project</text></svg>