<?xml version="1.0" encoding="UTF-8"?>
<svg width="1200pt" height="1200pt" version="1.1" viewBox="0 0 1200 1200" xmlns="http://www.w3.org/2000/svg">
 <g>
  <path d="m350.59 404.93v114.79h-129.32v84.277h129.32v117.72l204.9-158.4z"/>
  <path d="m856.27 624.95v114.8h129.34v84.262h-129.34v117.71l-204.89-158.39z"/>
  <path d="m908.23 266.02h-262.27l-210-220.02h-210.34c-96.301 0-174.37 78.07-174.37 174.37v547.23c0 96.301 78.07 174.37 174.37 174.37h294.98c0.98438 0 1.9336-0.13281 2.9023-0.15625v45.793c0 96.289 78.07 174.37 174.37 174.37h294.98c96.301 0 174.37-78.086 174.37-174.37v-450.24zm-678.24 590.83c-48.145 0-87.191-39.035-87.191-87.191v-547.82c0-48.156 39.035-87.191 87.191-87.191h161.29c24.07 0 43.598 19.512 43.598 43.598v82.523c0 24.07 19.512 43.598 43.598 43.598h87.191c24.07 0 43.598 19.512 43.598 43.598v421.72c0 48.156-39.035 87.191-87.191 87.191l-292.09-0.007813zm851.52 132.83c0 48.168-39.035 87.191-87.191 87.191h-292.07c-48.156 0-87.191-39.023-87.191-87.191v-75.625c48.035-31.066 79.906-84.984 79.906-146.44v-412.56c2.3984-0.20313 4.8125-0.39453 7.2734-0.39453h161.28c24.086 0 43.598 19.512 43.598 43.598v82.535c0 24.07 19.523 43.598 43.598 43.598h87.191c24.086 0 43.598 19.512 43.598 43.598l-0.007812 421.69z"/>
 </g>
</svg>
