<svg xmlns="http://www.w3.org/2000/svg" data-name="16 Robot" viewBox="0 0 64 80" x="0px" y="0px"><path d="M38.361,4.639c-.256,0-.512-.098-.707-.293-1.513-1.513-3.521-2.346-5.654-2.346s-4.141,.833-5.654,2.346c-.391,.391-1.023,.391-1.414,0s-.391-1.023,0-1.414c1.891-1.891,4.401-2.932,7.068-2.932s5.177,1.041,7.068,2.932c.391,.391,.391,1.023,0,1.414-.195,.195-.451,.293-.707,.293Z"/><path d="M34.829,8.172c-.256,0-.512-.098-.707-.293-1.135-1.133-3.108-1.133-4.243,0-.391,.391-1.024,.391-1.415,0-.39-.391-.39-1.024,0-1.414,.945-.944,2.201-1.465,3.536-1.465s2.59,.521,3.536,1.465c.391,.39,.391,1.023,0,1.414-.195,.195-.452,.293-.708,.293Z"/><path d="M32,49c-1.654,0-3-1.346-3-3s1.346-3,3-3c.552,0,1,.447,1,1s-.448,1-1,1-1,.448-1,1,.449,1,1,1,1-.448,1-1,.448-1,1-1,1,.447,1,1c0,1.654-1.346,3-3,3Z"/><path d="M46,25c-1.654,0-3-1.346-3-3s1.346-3,3-3c.552,0,1,.447,1,1s-.448,1-1,1-1,.448-1,1,.449,1,1,1,1-.448,1-1,.448-1,1-1,1,.447,1,1c0,1.654-1.346,3-3,3Z"/><path d="M18,25c-1.654,0-3-1.346-3-3s1.346-3,3-3c.552,0,1,.447,1,1s-.448,1-1,1-1,.448-1,1,.449,1,1,1,1-.448,1-1,.448-1,1-1,1,.447,1,1c0,1.654-1.346,3-3,3Z"/><path d="M46,15c-2.373,0-4.47,1.189-5.736,3H23.736c-1.267-1.811-3.364-3-5.736-3-3.86,0-7,3.141-7,7,0,2.785,1.639,5.188,4,6.315v4.685c0,.553,.448,1,1,1h1v2c0,.553,.448,1,1,1s1-.447,1-1v-2h1c.552,0,1-.447,1-1v-2c0-.553-.448-1-1-1s-1,.447-1,1v1h-2v-3.08c.328,.047,.66,.08,1,.08,2.372,0,4.47-1.189,5.736-3h13.264c.552,0,1-.447,1-1s-.448-1-1-1h-12.295c.19-.634,.295-1.305,.295-2s-.105-1.366-.295-2h14.59c-.19,.634-.295,1.305-.295,2,0,.982,.206,1.917,.573,2.767l-7.958,14.253c-3.68,.202-6.614,3.251-6.614,6.98v10c-1.654,0-3,1.346-3,3v4c0,.553,.448,1,1,1h18c.552,0,1-.447,1-1v-4c0-1.654-1.346-3-3-3h-12v-10c0-2.757,2.243-5,5-5s5,2.243,5,5v8c0,.553,.448,1,1,1s1-.447,1-1v-8c0-3.243-2.22-5.97-5.218-6.761l7.018-12.569c.904,1.005,2.091,1.745,3.437,2.097l-5.756,10.641c-.263,.485-.082,1.093,.404,1.355,.151,.081,.314,.12,.475,.12,.355,0,.7-.189,.88-.524l6.154-11.378c3.676-.207,6.605-3.254,6.605-6.98,0-3.859-3.14-7-7-7Zm-28,12c-2.757,0-5-2.243-5-5s2.243-5,5-5,5,2.243,5,5-2.243,5-5,5Zm22,32v3H24v-3c0-.552,.449-1,1-1h14c.551,0,1,.448,1,1Zm6-32c-2.757,0-5-2.243-5-5s2.243-5,5-5,5,2.243,5,5-2.243,5-5,5Z"/><circle cx="32" cy="11" r="1"/><text x="0" y="79" fill="#000000" font-size="5px" font-weight="bold" font-family="'Helvetica Neue', Helvetica, Arial-Unicode, Arial, Sans-serif">Created by Berkah Icon</text><text x="0" y="84" fill="#000000" font-size="5px" font-weight="bold" font-family="'Helvetica Neue', Helvetica, Arial-Unicode, Arial, Sans-serif">from the Noun Project</text></svg>